<svg width="125" height="125" viewBox="0 0 125 125" fill="none" xmlns="http://www.w3.org/2000/svg">
<g clip-path="url(#clip0_486_685)">
<path d="M62.35 123.2C95.9565 123.2 123.2 95.9565 123.2 62.35C123.2 28.7435 95.9565 1.5 62.35 1.5C28.7435 1.5 1.5 28.7435 1.5 62.35C1.5 95.9565 28.7435 123.2 62.35 123.2Z" stroke="#409384" stroke-width="3" stroke-linecap="round" stroke-linejoin="round"/>
<path d="M22.7806 16.1299L38.0906 17.8099L55.1506 19.0299V26.0299L46.9806 30.0499L46.8406 35.5099L42.4606 46.2299L26.5206 52.8499L29.2206 58.9399L54.1206 64.1099L55.1506 70.5599L50.7206 76.1299L51.6906 90.5199L44.4106 96.1899L45.9606 107.91L39.3806 108.11L28.1706 88.6899L20.4806 82.1399L12.5006 66.4499L19.6106 61.0499L17.3806 54.9099L4.89062 45.5899" stroke="#409384" stroke-width="3" stroke-linecap="round" stroke-linejoin="round"/>
<path d="M94.2607 10.54L84.7307 19.6L73.7207 23.56V33.38L86.3207 35.31L100.301 29.43L112.761 28.27" stroke="#409384" stroke-width="3" stroke-linecap="round" stroke-linejoin="round"/>
<path d="M119.799 42.3101H93.9091L80.7891 48.2601V62.3501L90.2491 67.2101C90.2491 67.2101 100.749 66.3401 101.399 67.2101C102.049 68.0801 103.829 83.4801 103.829 83.4801L111.049 98.8201" stroke="#409384" stroke-width="3" stroke-linecap="round" stroke-linejoin="round"/>
</g>
<defs>
<clipPath id="clip0_486_685">
<rect width="124.69" height="124.69" fill="white"/>
</clipPath>
</defs>
</svg>
