<svg width="160" height="126" viewBox="0 0 160 126" fill="none" xmlns="http://www.w3.org/2000/svg">
<g clip-path="url(#clip0_514_908)">
<path d="M142.699 23.75V15.52" stroke="#2CC6AB" stroke-width="3" stroke-linecap="round" stroke-linejoin="round"/>
<path d="M138.58 19.6401H146.81" stroke="#2CC6AB" stroke-width="3" stroke-linecap="round" stroke-linejoin="round"/>
<path d="M131.129 55.54C146.052 55.54 158.149 43.4427 158.149 28.52C158.149 13.5973 146.052 1.5 131.129 1.5C116.207 1.5 104.109 13.5973 104.109 28.52C104.109 43.4427 116.207 55.54 131.129 55.54Z" stroke="#2CC6AB" stroke-width="3" stroke-linecap="round" stroke-linejoin="round"/>
<path d="M120.539 41.96L129.729 17.74C130.219 16.45 132.049 16.45 132.539 17.74L141.729 41.96" stroke="#2CC6AB" stroke-width="3" stroke-linecap="round" stroke-linejoin="round"/>
<path d="M124.549 32.3799H137.719" stroke="#2CC6AB" stroke-width="3" stroke-linecap="round" stroke-linejoin="round"/>
<path d="M141.2 59.6V123.92H1.5V28.52H98.08" stroke="#2CC6AB" stroke-width="3" stroke-linecap="round" stroke-linejoin="round"/>
<path d="M35.7495 103.4C48.303 103.4 58.4795 93.2234 58.4795 80.6699C58.4795 68.1165 48.303 57.9399 35.7495 57.9399C23.1961 57.9399 13.0195 68.1165 13.0195 80.6699C13.0195 93.2234 23.1961 103.4 35.7495 103.4Z" stroke="#2CC6AB" stroke-width="3" stroke-linecap="round" stroke-linejoin="round"/>
<path d="M35.7503 80.6702L35.3203 57.9502C35.4603 57.9502 35.6003 57.9502 35.7503 57.9502C48.2203 57.9502 58.4803 68.2102 58.4803 80.6802H35.7503V80.6702Z" stroke="#2CC6AB" stroke-width="3" stroke-linecap="round" stroke-linejoin="round"/>
<path d="M35.7502 80.6699L19.4102 64.8699C23.6902 60.4399 29.5902 57.9399 35.7502 57.9399C48.2202 57.9399 58.4802 68.1999 58.4802 80.6699H35.7502Z" stroke="#2CC6AB" stroke-width="3" stroke-linecap="round" stroke-linejoin="round"/>
<path d="M90.5705 84.54H82.7305V97.15H90.5705V84.54Z" stroke="#2CC6AB" stroke-width="3" stroke-linecap="round" stroke-linejoin="round"/>
<path d="M106.061 62.8599H98.2207V97.1499H106.061V62.8599Z" stroke="#2CC6AB" stroke-width="3" stroke-linecap="round" stroke-linejoin="round"/>
<path d="M121.551 70.9302H113.711V97.1502H121.551V70.9302Z" stroke="#2CC6AB" stroke-width="3" stroke-linecap="round" stroke-linejoin="round"/>
<path d="M76.5195 103.51H128.65" stroke="#2CC6AB" stroke-width="3" stroke-linecap="round" stroke-linejoin="round"/>
<path d="M76.5195 53.3901V103.51" stroke="#2CC6AB" stroke-width="3" stroke-linecap="round" stroke-linejoin="round"/>
<path d="M11.1504 38.8799H36.8804" stroke="#2CC6AB" stroke-width="3" stroke-linecap="round" stroke-linejoin="round"/>
<path d="M11.1504 46.48H27.3504" stroke="#2CC6AB" stroke-width="3" stroke-linecap="round" stroke-linejoin="round"/>
</g>
<defs>
<clipPath id="clip0_514_908">
<rect width="159.65" height="125.42" fill="white"/>
</clipPath>
</defs>
</svg>
