<svg width="109" height="133" viewBox="0 0 109 133" fill="none" xmlns="http://www.w3.org/2000/svg">
<g clip-path="url(#clip0_486_694)">
<path d="M88.8594 97.6901L91.5994 89.5801" stroke="#FF7DAA" stroke-width="3" stroke-linecap="round" stroke-linejoin="round"/>
<path d="M86.1699 92.27L94.2799 95.01" stroke="#FF7DAA" stroke-width="3" stroke-linecap="round" stroke-linejoin="round"/>
<path d="M76.6798 130.72C93.4803 130.72 107.1 117.1 107.1 100.3C107.1 83.4994 93.4803 69.8799 76.6798 69.8799C59.8793 69.8799 46.2598 83.4994 46.2598 100.3C46.2598 117.1 59.8793 130.72 76.6798 130.72Z" stroke="#FF7DAA" stroke-width="3" stroke-linecap="round" stroke-linejoin="round"/>
<path d="M59.0703 109.05L76.1903 88.2499C77.1003 87.1399 78.9103 87.7499 78.9603 89.1899L79.9403 116.11" stroke="#FF7DAA" stroke-width="3" stroke-linecap="round" stroke-linejoin="round"/>
<path d="M66.209 100.95L79.189 105.33" stroke="#FF7DAA" stroke-width="3" stroke-linecap="round" stroke-linejoin="round"/>
<path d="M44.08 119.5H11.25C5.86 119.5 1.5 115.13 1.5 109.75V11.24C1.5 5.86 5.86 1.5 11.25 1.5H68.91" stroke="#FF7DAA" stroke-width="3" stroke-linecap="round" stroke-linejoin="round"/>
<path d="M94.2598 65.2898V26.8398" stroke="#FF7DAA" stroke-width="3" stroke-linecap="round" stroke-linejoin="round"/>
<path d="M18.4805 34.0303H76.6805" stroke="#FF7DAA" stroke-width="3" stroke-linecap="round" stroke-linejoin="round"/>
<path d="M18.4805 51.6499H76.6805" stroke="#FF7DAA" stroke-width="3" stroke-linecap="round" stroke-linejoin="round"/>
<path d="M18.4805 69.27H43.1205" stroke="#FF7DAA" stroke-width="3" stroke-linecap="round" stroke-linejoin="round"/>
<path d="M68.9102 17.1V1.5L94.2602 26.84H78.6602C73.2702 26.84 68.9102 22.48 68.9102 17.1Z" stroke="#FF7DAA" stroke-width="3" stroke-linecap="round" stroke-linejoin="round"/>
</g>
<defs>
<clipPath id="clip0_486_694">
<rect width="108.6" height="132.22" fill="white"/>
</clipPath>
</defs>
</svg>
