<svg width="108" height="94" viewBox="0 0 108 94" fill="none" xmlns="http://www.w3.org/2000/svg">
<g clip-path="url(#clip0_488_787)">
<path d="M95.79 17.0801H11.78C6.10251 17.0801 1.5 21.6826 1.5 27.3601V81.5401C1.5 87.2176 6.10251 91.8201 11.78 91.8201H95.79C101.467 91.8201 106.07 87.2176 106.07 81.5401V27.3601C106.07 21.6826 101.467 17.0801 95.79 17.0801Z" stroke="black" stroke-width="3" stroke-linecap="round" stroke-linejoin="round"/>
<path d="M34.0898 17.08V6.52C34.0898 3.75 37.1398 1.5 40.8998 1.5H66.6598C70.4198 1.5 73.4698 3.75 73.4698 6.52V17.09" stroke="black" stroke-width="3" stroke-linecap="round" stroke-linejoin="round"/>
<path d="M60.6699 52.3802C70.2299 51.7802 79.4299 49.9202 86.6699 46.8102L106.06 38.4902" stroke="black" stroke-width="3" stroke-linecap="round" stroke-linejoin="round"/>
<path d="M1.50977 38.4902L20.8898 46.8102C28.1398 49.9202 37.3398 51.7802 46.9098 52.3802" stroke="black" stroke-width="3" stroke-linecap="round" stroke-linejoin="round"/>
<path d="M60.33 43.9502H47.25V64.9502H60.33V43.9502Z" stroke="black" stroke-width="3" stroke-linecap="round" stroke-linejoin="round"/>
</g>
<defs>
<clipPath id="clip0_488_787">
<rect width="107.57" height="93.32" fill="white"/>
</clipPath>
</defs>
</svg>
