<svg width="160" height="126" viewBox="0 0 160 126" fill="none" xmlns="http://www.w3.org/2000/svg">
<g clip-path="url(#clip0_486_574)">
<path d="M65.8203 84.38L78.9903 49.68C79.6903 47.83 82.3103 47.83 83.0203 49.68L96.1903 84.38" stroke="#7272FF" stroke-width="3" stroke-linecap="round" stroke-linejoin="round"/>
<path d="M71.5703 70.6499H90.4403" stroke="#7272FF" stroke-width="3" stroke-linecap="round" stroke-linejoin="round"/>
<path d="M51.9902 84.3799L57.9902 68.5699C58.3102 67.7299 59.5002 67.7299 59.8202 68.5699L65.8202 84.3799" stroke="#7272FF" stroke-width="3" stroke-linecap="round" stroke-linejoin="round"/>
<path d="M54.6094 78.1299H63.2094" stroke="#7272FF" stroke-width="3" stroke-linecap="round" stroke-linejoin="round"/>
<path d="M141.14 41.21V91.32C141.14 96.98 136.55 101.57 130.89 101.57H11.75C6.09 101.57 1.5 96.98 1.5 91.32V11.75C1.5 6.09 6.09 1.5 11.75 1.5H130.88C133.32 1.5 135.56 2.35 137.32 3.78" stroke="#7272FF" stroke-width="3" stroke-linecap="round" stroke-linejoin="round"/>
<path d="M1.5 16.48H128" stroke="#7272FF" stroke-width="3" stroke-linecap="round" stroke-linejoin="round"/>
<path d="M107.961 79.0098V96.1098" stroke="#7272FF" stroke-width="3" stroke-linecap="round" stroke-linejoin="round"/>
<path d="M34.6797 96.1099V42.3499C34.6797 36.8799 39.1197 32.4399 44.5897 32.4399H98.0497C103.52 32.4399 107.96 36.8799 107.96 42.3499V47.2599" stroke="#7272FF" stroke-width="3" stroke-linecap="round" stroke-linejoin="round"/>
<path d="M13.4902 11.8999C14.7329 11.8999 15.7402 10.8925 15.7402 9.6499C15.7402 8.40726 14.7329 7.3999 13.4902 7.3999C12.2476 7.3999 11.2402 8.40726 11.2402 9.6499C11.2402 10.8925 12.2476 11.8999 13.4902 11.8999Z" stroke="#7272FF" stroke-width="3" stroke-linecap="round" stroke-linejoin="round"/>
<path d="M23.3105 11.8999C24.5532 11.8999 25.5605 10.8925 25.5605 9.6499C25.5605 8.40726 24.5532 7.3999 23.3105 7.3999C22.0679 7.3999 21.0605 8.40726 21.0605 9.6499C21.0605 10.8925 22.0679 11.8999 23.3105 11.8999Z" stroke="#7272FF" stroke-width="3" stroke-linecap="round" stroke-linejoin="round"/>
<path d="M33.1211 11.8999C34.3637 11.8999 35.3711 10.8925 35.3711 9.6499C35.3711 8.40726 34.3637 7.3999 33.1211 7.3999C31.8785 7.3999 30.8711 8.40726 30.8711 9.6499C30.8711 10.8925 31.8785 11.8999 33.1211 11.8999Z" stroke="#7272FF" stroke-width="3" stroke-linecap="round" stroke-linejoin="round"/>
<path d="M54.1002 101.57C54.1002 110.81 51.3802 118.95 47.2402 123.76" stroke="#7272FF" stroke-width="3" stroke-linecap="round" stroke-linejoin="round"/>
<path d="M88.541 101.57C88.541 110.81 91.261 118.95 95.401 123.76" stroke="#7272FF" stroke-width="3" stroke-linecap="round" stroke-linejoin="round"/>
<path d="M40.4805 123.76H102.15" stroke="#7272FF" stroke-width="3" stroke-linecap="round" stroke-linejoin="round"/>
<path d="M109.86 71.6401L98.4102 77.3701L101.17 64.8701C101.55 63.1301 102.32 61.5101 103.41 60.1101L145.67 5.90005C147.93 3.00005 152.12 2.48005 155.03 4.74005C157.93 7.00005 158.45 11.19 156.19 14.1L113.94 68.3101C112.85 69.7101 111.46 70.8501 109.87 71.6501L109.86 71.6401Z" stroke="#7272FF" stroke-width="3" stroke-linecap="round" stroke-linejoin="round"/>
<path d="M143.529 8.64014L153.379 16.3201" stroke="#7272FF" stroke-width="3" stroke-linecap="round" stroke-linejoin="round"/>
<path d="M138.91 14.5698L148.76 22.2498" stroke="#7272FF" stroke-width="3" stroke-linecap="round" stroke-linejoin="round"/>
<path d="M102.48 62.7998L112.07 70.2198" stroke="#7272FF" stroke-width="3" stroke-linecap="round" stroke-linejoin="round"/>
<path d="M99.1699 73.9199L101.43 75.8699" stroke="#7272FF" stroke-width="3" stroke-linecap="round" stroke-linejoin="round"/>
</g>
<defs>
<clipPath id="clip0_486_574">
<rect width="159.09" height="125.26" fill="white"/>
</clipPath>
</defs>
</svg>
