<svg width="144" height="80" viewBox="0 0 144 80" fill="none" xmlns="http://www.w3.org/2000/svg">
<g clip-path="url(#clip0_488_793)">
<path d="M55.48 77.5902C52.49 65.4502 41.56 56.4302 28.49 56.4302C15.42 56.4302 4.49 65.4502 1.5 77.5902" stroke="black" stroke-width="3" stroke-linecap="round" stroke-linejoin="round"/>
<path d="M28.4905 50.3102C37.7027 50.3102 45.1705 42.8423 45.1705 33.6302C45.1705 24.4181 37.7027 16.9502 28.4905 16.9502C19.2784 16.9502 11.8105 24.4181 11.8105 33.6302C11.8105 42.8423 19.2784 50.3102 28.4905 50.3102Z" stroke="black" stroke-width="3" stroke-linecap="round" stroke-linejoin="round"/>
<path d="M97.7905 61.39C94.9105 49.68 84.3605 40.98 71.7605 40.98C59.1605 40.98 48.6105 49.68 45.7305 61.39" stroke="black" stroke-width="3" stroke-linecap="round" stroke-linejoin="round"/>
<path d="M71.7601 34.86C80.9722 34.86 88.4401 27.3921 88.4401 18.18C88.4401 8.96789 80.9722 1.5 71.7601 1.5C62.548 1.5 55.0801 8.96789 55.0801 18.18C55.0801 27.3921 62.548 34.86 71.7601 34.86Z" stroke="black" stroke-width="3" stroke-linecap="round" stroke-linejoin="round"/>
<path d="M142.009 77.5897C139.019 65.4497 128.089 56.4297 115.019 56.4297C101.949 56.4297 91.0193 65.4497 88.0293 77.5897" stroke="black" stroke-width="3" stroke-linecap="round" stroke-linejoin="round"/>
<path d="M115.02 50.3102C124.232 50.3102 131.7 42.8423 131.7 33.6302C131.7 24.4181 124.232 16.9502 115.02 16.9502C105.808 16.9502 98.3398 24.4181 98.3398 33.6302C98.3398 42.8423 105.808 50.3102 115.02 50.3102Z" stroke="black" stroke-width="3" stroke-linecap="round" stroke-linejoin="round"/>
</g>
<defs>
<clipPath id="clip0_488_793">
<rect width="143.51" height="79.09" fill="white"/>
</clipPath>
</defs>
</svg>
