<svg width="145" height="94" viewBox="0 0 145 94" fill="none" xmlns="http://www.w3.org/2000/svg">
<g clip-path="url(#clip0_486_740)">
<path d="M42.8008 77.53C52.0108 80.92 61.9608 82.77 72.3508 82.77C101.821 82.77 127.801 67.88 143.211 45.22C134.021 31.7 121.071 20.95 105.861 14.48" stroke="#6F7091" stroke-width="3" stroke-linecap="round" stroke-linejoin="round"/>
<path d="M97.25 11.3499C89.37 8.95992 81.01 7.66992 72.35 7.66992C42.89 7.66992 16.9 22.5599 1.5 45.2199C9.82 57.4599 21.22 67.4299 34.59 74.0099" stroke="#6F7091" stroke-width="3" stroke-linecap="round" stroke-linejoin="round"/>
<path d="M49.2901 59.2999C46.7801 55.1999 45.3301 50.3799 45.3301 45.2099C45.3301 30.2899 57.4301 18.1899 72.3501 18.1899C77.5101 18.1899 82.3301 19.6399 86.4401 22.1499" stroke="#6F7091" stroke-width="3" stroke-linecap="round" stroke-linejoin="round"/>
<path d="M93.0099 27.7998C96.9799 32.4998 99.3699 38.5798 99.3699 45.2198C99.3699 60.1398 87.2699 72.2398 72.3499 72.2398C65.5899 72.2398 59.4099 69.7598 54.6699 65.6598" stroke="#6F7091" stroke-width="3" stroke-linecap="round" stroke-linejoin="round"/>
<path d="M118.831 1.5L28.6406 91.7" stroke="#6F7091" stroke-width="3" stroke-linecap="round" stroke-linejoin="round"/>
</g>
<defs>
<clipPath id="clip0_486_740">
<rect width="144.71" height="93.2" fill="white"/>
</clipPath>
</defs>
</svg>
