<svg width="141" height="147" viewBox="0 0 141 147" fill="none" xmlns="http://www.w3.org/2000/svg">
<g clip-path="url(#clip0_514_889)">
<path d="M64.1406 64.98H102.281" stroke="#FA7676" stroke-width="3" stroke-linecap="round" stroke-linejoin="round"/>
<path d="M101.44 32.1002C100.43 27.9902 96.7202 24.9302 92.3002 24.9302C87.8802 24.9302 84.1702 27.9902 83.1602 32.1002H101.45H101.44Z" stroke="#FA7676" stroke-width="3" stroke-linecap="round" stroke-linejoin="round"/>
<path d="M92.3004 22.8601C95.4208 22.8601 97.9504 20.3305 97.9504 17.2101C97.9504 14.0896 95.4208 11.5601 92.3004 11.5601C89.18 11.5601 86.6504 14.0896 86.6504 17.2101C86.6504 20.3305 89.18 22.8601 92.3004 22.8601Z" stroke="#FA7676" stroke-width="3" stroke-linecap="round" stroke-linejoin="round"/>
<path d="M92.2997 47.24C104.93 47.24 115.17 37.0008 115.17 24.37C115.17 11.7392 104.93 1.5 92.2997 1.5C79.6689 1.5 69.4297 11.7392 69.4297 24.37C69.4297 37.0008 79.6689 47.24 92.2997 47.24Z" stroke="#FA7676" stroke-width="3" stroke-linecap="round" stroke-linejoin="round"/>
<path d="M98.1992 2.27C100.079 1.77 102.059 1.5 104.099 1.5C116.729 1.5 126.969 11.74 126.969 24.37C126.969 37 116.729 47.24 104.099 47.24C102.059 47.24 100.079 46.97 98.1992 46.47" stroke="#FA7676" stroke-width="3" stroke-linecap="round" stroke-linejoin="round"/>
<path d="M110.07 2.27C111.95 1.77 113.93 1.5 115.97 1.5C128.6 1.5 138.84 11.74 138.84 24.37C138.84 37 128.6 47.24 115.97 47.24C113.93 47.24 111.95 46.97 110.07 46.47" stroke="#FA7676" stroke-width="3" stroke-linecap="round" stroke-linejoin="round"/>
<path d="M92.3 106.74H1.5V144.61H92.3V106.74Z" stroke="#FA7676" stroke-width="3" stroke-linecap="round" stroke-linejoin="round"/>
<path d="M41.709 125.67C41.709 120.72 45.719 116.71 50.669 116.71H67.169C72.119 116.71 76.129 120.72 76.129 125.67C76.129 130.62 72.119 134.63 67.169 134.63H50.669" stroke="#FA7676" stroke-width="3" stroke-linecap="round" stroke-linejoin="round"/>
<path d="M52.0899 125.67C52.0899 130.62 48.0799 134.63 43.1299 134.63H26.6299C21.6799 134.63 17.6699 130.62 17.6699 125.67C17.6699 120.72 21.6799 116.71 26.6299 116.71H43.1299" stroke="#FA7676" stroke-width="3" stroke-linecap="round" stroke-linejoin="round"/>
<path d="M53.1909 69.0399C55.4331 69.0399 57.2509 67.2222 57.2509 64.9799C57.2509 62.7377 55.4331 60.9199 53.1909 60.9199C50.9486 60.9199 49.1309 62.7377 49.1309 64.9799C49.1309 67.2222 50.9486 69.0399 53.1909 69.0399Z" stroke="#FA7676" stroke-width="3" stroke-linecap="round" stroke-linejoin="round"/>
<path d="M64.1406 89.4302H102.281" stroke="#FA7676" stroke-width="3" stroke-linecap="round" stroke-linejoin="round"/>
<path d="M53.1909 93.4901C55.4331 93.4901 57.2509 91.6724 57.2509 89.4301C57.2509 87.1878 55.4331 85.3701 53.1909 85.3701C50.9486 85.3701 49.1309 87.1878 49.1309 89.4301C49.1309 91.6724 50.9486 93.4901 53.1909 93.4901Z" stroke="#FA7676" stroke-width="3" stroke-linecap="round" stroke-linejoin="round"/>
<path d="M28.0898 101.78V32.8801C28.0898 28.1801 31.8998 24.3701 36.5998 24.3701H64.1398" stroke="#FA7676" stroke-width="3" stroke-linecap="round" stroke-linejoin="round"/>
<path d="M123.32 51.5498V130.6C123.32 135.3 119.51 139.11 114.81 139.11H99.5898" stroke="#FA7676" stroke-width="3" stroke-linecap="round" stroke-linejoin="round"/>
</g>
<defs>
<clipPath id="clip0_514_889">
<rect width="140.34" height="146.11" fill="white"/>
</clipPath>
</defs>
</svg>
