<svg width="145" height="84" viewBox="0 0 145 84" fill="none" xmlns="http://www.w3.org/2000/svg">
<g clip-path="url(#clip0_488_805)">
<path d="M72.15 1.5L1.5 24.37L72.15 47.24L142.8 24.37L72.15 1.5Z" stroke="black" stroke-width="3" stroke-linecap="round" stroke-linejoin="round"/>
<path d="M72.1504 24.3701L123.52 30.6101V56.6701" stroke="black" stroke-width="3" stroke-linecap="round" stroke-linejoin="round"/>
<path d="M119.26 60.2299L114.32 79.9899H132.73L127.79 60.2299C127.26 58.1299 125.52 56.6699 123.52 56.6699C121.53 56.6699 119.78 58.1299 119.25 60.2299H119.26Z" stroke="black" stroke-width="3" stroke-linecap="round" stroke-linejoin="round"/>
<path d="M35.4805 35.6602V70.7902C35.4805 70.7902 35.5305 70.8102 35.5605 70.8202C36.7705 76.8402 52.6805 81.6002 72.1505 81.6002C91.6205 81.6002 107.53 76.8402 108.74 70.8202C108.77 70.8202 108.8 70.8002 108.82 70.7902V35.6602" stroke="black" stroke-width="3" stroke-linecap="round" stroke-linejoin="round"/>
</g>
<defs>
<clipPath id="clip0_488_805">
<rect width="144.3" height="83.11" fill="white"/>
</clipPath>
</defs>
</svg>
